<svg width="16" height="16" viewBox="0 0 16 16" fill="none" xmlns="http://www.w3.org/2000/svg">
<circle cx="8" cy="8" r="8" fill="url(#paint0_linear_1_2)"/>
<path d="M11.2874 4.35273C11.4523 4.19492 11.6717 4.10767 11.8993 4.1094C12.127 4.11113 12.3451 4.20171 12.5075 4.36201C12.67 4.52232 12.7642 4.73982 12.7702 4.96861C12.7762 5.19741 12.6936 5.41961 12.5398 5.58832L7.86972 11.4603C7.78941 11.5473 7.69249 11.6171 7.58475 11.6655C7.47701 11.714 7.36066 11.7401 7.24265 11.7423C7.12465 11.7444 7.00742 11.7227 6.89796 11.6783C6.78851 11.6339 6.68909 11.5678 6.60564 11.4839L3.50864 8.37017C3.4224 8.28937 3.35322 8.19194 3.30524 8.08368C3.25726 7.97542 3.23146 7.85855 3.22938 7.74005C3.22731 7.62154 3.24899 7.50383 3.29314 7.39394C3.33729 7.28404 3.403 7.18422 3.48636 7.10041C3.56972 7.0166 3.66901 6.95053 3.77832 6.90614C3.88762 6.86176 4.0047 6.83996 4.12257 6.84205C4.24043 6.84414 4.35667 6.87008 4.46435 6.91831C4.57204 6.96655 4.66895 7.0361 4.74931 7.12281L7.20022 9.58576L11.2652 4.37862C11.2725 4.36956 11.2791 4.36092 11.2874 4.35273Z" fill="white"/>
<defs>
<linearGradient id="paint0_linear_1_2" x1="0" y1="0" x2="18.2626" y2="3.23769" gradientUnits="userSpaceOnUse">
<stop stop-color="#00AA81"/>
<stop offset="1" stop-color="#0EB400"/>
</linearGradient>
</defs>
</svg>
