<svg width="15" height="14" viewBox="0 0 15 14" fill="none" xmlns="http://www.w3.org/2000/svg">
<path d="M7.50001 0.333984C3.81334 0.333984 0.833344 3.31398 0.833344 7.00065C0.833344 10.6873 3.81334 13.6673 7.50001 13.6673C11.1867 13.6673 14.1667 10.6873 14.1667 7.00065C14.1667 3.31398 11.1867 0.333984 7.50001 0.333984ZM10.3667 9.86732C10.305 9.92912 10.2317 9.97815 10.1511 10.0116C10.0704 10.0451 9.98399 10.0623 9.89668 10.0623C9.80936 10.0623 9.72291 10.0451 9.64226 10.0116C9.56161 9.97815 9.48835 9.92912 9.42668 9.86732L7.50001 7.94065L5.57334 9.86732C5.44869 9.99197 5.27963 10.062 5.10334 10.062C4.92706 10.062 4.75799 9.99197 4.63334 9.86732C4.50869 9.74267 4.43866 9.5736 4.43866 9.39732C4.43866 9.31003 4.45586 9.2236 4.48926 9.14295C4.52266 9.06231 4.57162 8.98904 4.63334 8.92732L6.56001 7.00065L4.63334 5.07398C4.50869 4.94933 4.43866 4.78027 4.43866 4.60398C4.43866 4.4277 4.50869 4.25864 4.63334 4.13398C4.75799 4.00933 4.92706 3.9393 5.10334 3.9393C5.27963 3.9393 5.44869 4.00933 5.57334 4.13398L7.50001 6.06065L9.42668 4.13398C9.4884 4.07226 9.56167 4.0233 9.64231 3.9899C9.72296 3.9565 9.80939 3.9393 9.89668 3.9393C9.98396 3.9393 10.0704 3.9565 10.151 3.9899C10.2317 4.0233 10.305 4.07226 10.3667 4.13398C10.4284 4.19571 10.4774 4.26898 10.5108 4.34962C10.5442 4.43026 10.5614 4.5167 10.5614 4.60398C10.5614 4.69127 10.5442 4.7777 10.5108 4.85835C10.4774 4.93899 10.4284 5.01226 10.3667 5.07398L8.44001 7.00065L10.3667 8.92732C10.62 9.18065 10.62 9.60732 10.3667 9.86732Z" fill="#999999"/>
</svg>
