<svg width="16" height="16" viewBox="0 0 16 16" fill="none" xmlns="http://www.w3.org/2000/svg">
<circle cx="8" cy="8" r="8" fill="url(#paint0_linear_2763_9759)"/>
<path d="M11.2875 4.35352C11.4524 4.19571 11.6718 4.10846 11.8994 4.11019C12.127 4.11193 12.3451 4.2025 12.5076 4.36281C12.6701 4.52311 12.7643 4.74061 12.7703 4.96941C12.7763 5.1982 12.6937 5.4204 12.5398 5.58912L7.86978 11.4611C7.78947 11.5481 7.69255 11.6179 7.58481 11.6663C7.47707 11.7147 7.36072 11.7408 7.24271 11.743C7.12471 11.7452 7.00748 11.7235 6.89802 11.6791C6.78857 11.6347 6.68915 11.5686 6.6057 11.4847L3.5087 8.37096C3.42246 8.29017 3.35328 8.19273 3.3053 8.08447C3.25732 7.97621 3.23153 7.85934 3.22945 7.74084C3.22737 7.62234 3.24905 7.50463 3.2932 7.39473C3.33735 7.28484 3.40306 7.18501 3.48642 7.1012C3.56978 7.01739 3.66907 6.95133 3.77838 6.90694C3.88768 6.86255 4.00476 6.84075 4.12263 6.84284C4.2405 6.84493 4.35674 6.87087 4.46442 6.91911C4.5721 6.96734 4.66901 7.03689 4.74937 7.1236L7.20028 9.58655L11.2652 4.37941C11.2726 4.37035 11.2792 4.36171 11.2875 4.35352Z" fill="white"/>
<defs>
<linearGradient id="paint0_linear_2763_9759" x1="0" y1="0" x2="18.2626" y2="3.23769" gradientUnits="userSpaceOnUse">
<stop stop-color="#00AA81"/>
<stop offset="1" stop-color="#0EB400"/>
</linearGradient>
</defs>
</svg>
