<svg width="80" height="80" viewBox="0 0 80 80" fill="none" xmlns="http://www.w3.org/2000/svg">
<circle cx="40" cy="40" r="40" fill="url(#paint0_linear_2474_8721)"/>
<path d="M53.6569 26.3431C54.4379 25.5621 54.4379 24.4379 53.6569 23.6569C52.8759 22.8759 51.7517 22.8759 50.9707 23.6569L40 34.6276L29.0293 23.6569C28.2483 22.8759 27.1241 22.8759 26.3431 23.6569C25.5621 24.4379 25.5621 25.5621 26.3431 26.3431L37.3137 37.3137L26.3431 48.2843C25.5621 49.0653 25.5621 50.1895 26.3431 50.9705C27.1241 51.7515 28.2483 51.7515 29.0293 50.9705L40 39.9999L50.9707 50.9705C51.7517 51.7515 52.8759 51.7515 53.6569 50.9705C54.4379 50.1895 54.4379 49.0653 53.6569 48.2843L42.6863 37.3137L53.6569 26.3431Z" fill="white"/>
<defs>
<linearGradient id="paint0_linear_2474_8721" x1="0" y1="0" x2="91.3129" y2="16.1884" gradientUnits="userSpaceOnUse">
<stop stop-color="#FF5A5A"/>
<stop offset="1" stop-color="#FF0000"/>
</linearGradient>
</defs>
</svg>
